<?xml version="1.0" encoding="UTF-8" standalone="no"?>
<svg
   xmlns:dc="http://purl.org/dc/elements/1.1/"
   xmlns:cc="http://creativecommons.org/ns#"
   xmlns:rdf="http://www.w3.org/1999/02/22-rdf-syntax-ns#"
   xmlns:svg="http://www.w3.org/2000/svg"
   xmlns="http://www.w3.org/2000/svg"
   xmlns:sodipodi="http://sodipodi.sourceforge.net/DTD/sodipodi-0.dtd"
   xmlns:inkscape="http://www.inkscape.org/namespaces/inkscape"
   version="1.1"
   viewBox="0.0 0.0 377.9527559055118 377.9527559055118"
   fill="none"
   stroke="none"
   stroke-linecap="square"
   stroke-miterlimit="10"
   id="svg13"
   sodipodi:docname="logo.svg"
   inkscape:export-filename="/home/knoop/local/son/docs/images/logo.png"
   inkscape:export-xdpi="12.19"
   inkscape:export-ydpi="12.19"
   inkscape:version="0.92.4 (unknown)">
  <metadata
     id="metadata19">
    <rdf:RDF>
      <cc:Work
         rdf:about="">
        <dc:format>image/svg+xml</dc:format>
        <dc:type
           rdf:resource="http://purl.org/dc/dcmitype/StillImage" />
        <dc:title></dc:title>
      </cc:Work>
    </rdf:RDF>
  </metadata>
  <defs
     id="defs17" />
  <sodipodi:namedview
     pagecolor="#ffffff"
     bordercolor="#666666"
     borderopacity="1"
     objecttolerance="10"
     gridtolerance="10"
     guidetolerance="10"
     inkscape:pageopacity="0"
     inkscape:pageshadow="2"
     inkscape:window-width="922"
     inkscape:window-height="1051"
     id="namedview15"
     showgrid="false"
     inkscape:zoom="0.62441666"
     inkscape:cx="188.97638"
     inkscape:cy="188.97638"
     inkscape:window-x="68"
     inkscape:window-y="0"
     inkscape:window-maximized="0"
     inkscape:current-layer="svg13" />
  <clipPath
     id="p.0">
    <path
       d="m0 0l377.95276 0l0 377.95276l-377.95276 0l0 -377.95276z"
       clip-rule="nonzero"
       id="path2" />
  </clipPath>
  <g
     clip-path="url(#p.0)"
     id="g11">
    <path
       fill="#ffffff"
       d="m0 0l377.95276 0l0 377.95276l-377.95276 0z"
       fill-rule="evenodd"
       id="path5" />
    <path
       fill="#000000"
       fill-opacity="0.0"
       d="m5.2493436E-7 0l377.95276 0l0 377.95276l-377.95276 0z"
       fill-rule="evenodd"
       id="path7" />
    <path
       fill="#000000"
       d="m102.73891 153.12013q-0.65625 1.109375 -1.390625 1.65625q-0.734375 0.546875 -1.90625 0.546875q-1.25 0 -2.90625 -1.25q-1.640625 -1.25 -4.171875 -2.75q-2.53125 -1.5 -6.09375 -2.75q-3.546875 -1.25 -8.609375 -1.25q-4.765625 0 -8.4375 1.296875q-3.65625 1.28125 -6.125 3.484375q-2.453125 2.1875 -3.703125 5.15625q-1.234375 2.96875 -1.234375 6.421875q0 4.40625 2.15625 7.296875q2.171875 2.890625 5.71875 4.953125q3.5625 2.046875 8.0625 3.5625q4.515625 1.5 9.25 3.109375q4.734375 1.609375 9.234375 3.625q4.515625 2.015625 8.0625 5.09375q3.5625 3.078125 5.71875 7.5625q2.171875 4.46875 2.171875 11.0q0 6.890625 -2.34375 12.9375q-2.34375 6.046875 -6.859375 10.53125q-4.515625 4.46875 -11.078125 7.03125q-6.5625 2.5625 -14.921875 2.5625q-10.1875 0 -18.59375 -3.703125q-8.390625 -3.703125 -14.328125 -10.015625l4.109375 -6.734375q0.59375 -0.8125 1.421875 -1.359375q0.84375 -0.546875 1.875 -0.546875q1.546875 0 3.515625 1.65625q1.984375 1.640625 4.953125 3.625q2.96875 1.96875 7.1875 3.625q4.21875 1.65625 10.3125 1.65625q5.046875 0 9.0 -1.390625q3.96875 -1.40625 6.71875 -3.9375q2.75 -2.53125 4.21875 -6.046875q1.46875 -3.515625 1.46875 -7.84375q0 -4.765625 -2.171875 -7.8125q-2.15625 -3.046875 -5.6875 -5.09375q-3.515625 -2.046875 -8.03125 -3.46875q-4.5 -1.4375 -9.234375 -2.9375q-4.71875 -1.515625 -9.234375 -3.484375q-4.5 -1.984375 -8.03125 -5.140625q-3.515625 -3.15625 -5.6875 -7.875q-2.15625 -4.734375 -2.15625 -11.703125q0 -5.578125 2.15625 -10.78125q2.171875 -5.203125 6.28125 -9.234375q4.109375 -4.03125 10.15625 -6.453125q6.046875 -2.421875 13.890625 -2.421875q8.796875 0 16.0625 2.796875q7.265625 2.78125 12.6875 8.046875l-3.453125 6.75zm121.50896 36.15625q0 11.796875 -3.75 21.671875q-3.734375 9.859375 -10.5625 16.96875q-6.8125 7.109375 -16.375 11.03125q-9.5625 3.921875 -21.15625 3.921875q-11.578125 0 -21.125 -3.921875q-9.53125 -3.921875 -16.359375 -11.03125q-6.8125 -7.109375 -10.546875 -16.96875q-3.734375 -9.875 -3.734375 -21.671875q0 -11.8125 3.734375 -21.671875q3.734375 -9.859375 10.546875 -17.0q6.828125 -7.15625 16.359375 -11.109375q9.546875 -3.96875 21.125 -3.96875q11.59375 0 21.15625 3.96875q9.5625 3.953125 16.375 11.109375q6.828125 7.140625 10.5625 17.0q3.75 9.859375 3.75 21.671875zm-14.59375 0q0 -9.6875 -2.640625 -17.375q-2.640625 -7.703125 -7.484375 -13.015625q-4.828125 -5.328125 -11.734375 -8.1875q-6.890625 -2.859375 -15.390625 -2.859375q-8.4375 0 -15.328125 2.859375q-6.890625 2.859375 -11.765625 8.1875q-4.875 5.3125 -7.515625 13.015625q-2.640625 7.6875 -2.640625 17.375q0 9.671875 2.640625 17.34375q2.640625 7.65625 7.515625 12.984375q4.875 5.3125 11.765625 8.140625q6.890625 2.8125 15.328125 2.8125q8.5 0 15.390625 -2.8125q6.90625 -2.828125 11.734375 -8.140625q4.84375 -5.328125 7.484375 -12.984375q2.640625 -7.671875 2.640625 -17.34375zm41.35965 -52.578125q1.90625 0 2.8125 0.484375q0.921875 0.46875 2.09375 1.9375l60.859375 79.1875q-0.21875 -1.90625 -0.296875 -3.703125q-0.0625 -1.796875 -0.0625 -3.484375l0 -74.421875l12.46875 0l0 105.078125l-7.1875 0q-1.6875 0 -2.828125 -0.578125q-1.125 -0.59375 -2.234375 -1.984375l-60.78125 -79.125q0.140625 1.828125 0.203125 3.59375q0.078125 1.765625 0.078125 3.21875l0 74.875l-12.453125 0l0 -105.078125l7.328125 0l0 0z"
       fill-rule="nonzero"
       id="path9" />
  </g>
</svg>
